<svg id="visual" viewBox="0 0 960 540" width="960" height="540" xmlns="http://www.w3.org/2000/svg" xmlns:xlink="http://www.w3.org/1999/xlink" version="1.1"><rect x="0" y="0" width="960" height="540" fill="#001220"></rect><g fill="none" stroke="#A7233A" stroke-width="2"><circle r="32" cx="62" cy="187"></circle><circle r="1" cx="361" cy="183"></circle><circle r="20" cx="430" cy="297"></circle><circle r="8" cx="688" cy="368"></circle><circle r="11" cx="564" cy="280"></circle><circle r="14" cx="362" cy="353"></circle><circle r="21" cx="472" cy="55"></circle><circle r="23" cx="913" cy="191"></circle><circle r="5" cx="637" cy="49"></circle><circle r="13" cx="849" cy="359"></circle><circle r="30" cx="207" cy="477"></circle><circle r="12" cx="334" cy="271"></circle><circle r="21" cx="344" cy="35"></circle><circle r="7" cx="465" cy="409"></circle><circle r="30" cx="174" cy="304"></circle><circle r="25" cx="20" cy="114"></circle><circle r="8" cx="798" cy="490"></circle><circle r="21" cx="65" cy="527"></circle><circle r="28" cx="899" cy="43"></circle><circle r="3" cx="867" cy="449"></circle><circle r="11" cx="594" cy="466"></circle><circle r="30" cx="303" cy="119"></circle><circle r="18" cx="509" cy="121"></circle><circle r="0" cx="660" cy="511"></circle><circle r="5" cx="62" cy="347"></circle><circle r="17" cx="725" cy="57"></circle><circle r="29" cx="691" cy="156"></circle><circle r="16" cx="320" cy="436"></circle><circle r="10" cx="923" cy="259"></circle><circle r="10" cx="739" cy="205"></circle><circle r="22" cx="942" cy="422"></circle><circle r="27" cx="499" cy="494"></circle><circle r="25" cx="832" cy="105"></circle><circle r="15" cx="214" cy="121"></circle><circle r="10" cx="103" cy="37"></circle><circle r="20" cx="743" cy="440"></circle><circle r="4" cx="169" cy="228"></circle><circle r="20" cx="432" cy="228"></circle><circle r="26" cx="804" cy="259"></circle><circle r="0" cx="836" cy="185"></circle><circle r="28" cx="262" cy="320"></circle><circle r="13" cx="727" cy="309"></circle><circle r="25" cx="80" cy="266"></circle><circle r="24" cx="141" cy="406"></circle><circle r="6" cx="620" cy="338"></circle><circle r="0" cx="240" cy="12"></circle><circle r="6" cx="138" cy="505"></circle><circle r="18" cx="532" cy="430"></circle><circle r="0" cx="409" cy="121"></circle><circle r="22" cx="505" cy="202"></circle><circle r="18" cx="777" cy="376"></circle><circle r="15" cx="913" cy="327"></circle><circle r="0" cx="256" cy="197"></circle><circle r="7" cx="291" cy="514"></circle><circle r="12" cx="19" cy="446"></circle><circle r="6" cx="554" cy="31"></circle><circle r="3" cx="594" cy="117"></circle><circle r="22" cx="398" cy="518"></circle><circle r="23" cx="173" cy="39"></circle><circle r="12" cx="652" cy="275"></circle><circle r="9" cx="584" cy="208"></circle><circle r="27" cx="955" cy="490"></circle><circle r="4" cx="510" cy="351"></circle><circle r="27" cx="13" cy="300"></circle><circle r="10" cx="735" cy="523"></circle><circle r="12" cx="859" cy="539"></circle><circle r="0" cx="834" cy="7"></circle><circle r="22" cx="261" cy="388"></circle><circle r="16" cx="142" cy="163"></circle><circle r="8" cx="576" cy="532"></circle><circle r="14" cx="34" cy="34"></circle><circle r="27" cx="940" cy="109"></circle><circle r="25" cx="91" cy="110"></circle><circle r="22" cx="757" cy="118"></circle><circle r="1" cx="89" cy="457"></circle><circle r="24" cx="416" cy="1"></circle><circle r="5" cx="661" cy="435"></circle><circle r="26" cx="398" cy="440"></circle><circle r="24" cx="4" cy="232"></circle><circle r="19" cx="491" cy="268"></circle></g></svg>